<svg width="24" height="48" viewBox="0 0 24 48" xmlns="http://www.w3.org/2000/svg"><title>icon-next-step</title><g fill="none" fill-rule="evenodd"><path d="M12 24c6.627 0 12-5.373 12-12S18.627 0 12 0 0 5.373 0 12s5.373 12 12 12zm0-2c5.523 0 10-4.477 10-10S17.523 2 12 2 2 6.477 2 12s4.477 10 10 10z" fill="#0E99E5"/><path d="M7 12.59a1 1 0 1 0 0-2 1 1 0 0 0 0 2z" fill="#0E99E5"/><path d="M16.995 10.635c-.706-.702-1.7-1.595-3.048-3.224-.77-.656-1.08-.38-1.35-.158-.268.224-.194.603.134 1.167.33.563 2.217 2.418 2.217 2.418l-4.654.167c-.537 0-.63.51-.644.588.013.09.106.504.643.504l4.654.264s-1.887 1.855-2.216 2.42c-.327.563-.4.942-.132 1.166.27.223.58.498 1.35-.16 1.348-1.628 2.34-2.52 3.047-3.223.717-.417.842-.51.844-.956-.003-.463-.128-.555-.845-.972z" fill="#0E99E5" opacity=".9"/><path d="M12 48c6.627 0 12-5.373 12-12s-5.373-12-12-12S0 29.373 0 36s5.373 12 12 12zm0-2c5.523 0 10-4.477 10-10s-4.477-10-10-10S2 30.477 2 36s4.477 10 10 10z" fill="#0076B1"/><path d="M7 36.59a1 1 0 1 0 0-2 1 1 0 0 0 0 2z" fill="#0076B1"/><path d="M16.995 34.635c-.706-.702-1.7-1.595-3.048-3.224-.77-.656-1.08-.38-1.35-.158-.268.224-.194.603.134 1.167.33.563 2.217 2.418 2.217 2.418l-4.654.167c-.537 0-.63.51-.644.588.013.09.106.504.643.504l4.654.264s-1.887 1.855-2.216 2.42c-.327.563-.4.942-.132 1.166.27.223.58.498 1.35-.16 1.348-1.628 2.34-2.52 3.047-3.223.717-.417.842-.51.844-.956-.003-.463-.128-.555-.845-.972z" fill="#0076B1" opacity=".9"/></g></svg>